HIERARCHY
ROOT Hips
{
	OFFSET	0.00	0.00	0.00
	CHANNELS 6 Xposition Yposition Zposition Zrotation Xrotation Yrotation
	JOINT Spine
	{
		OFFSET	 0.00	0.01	 0.00
		CHANNELS 3 Zrotation Xrotation Yrotation
		JOINT Spine1
		{
			OFFSET	 0.00	 2.45913012437421	 0.00
			CHANNELS 3 Zrotation Xrotation Yrotation
            JOINT Neck
            {
                OFFSET	 0.00	 2.48462964506057	 0.00
                CHANNELS 3 Zrotation Xrotation Yrotation
                JOINT Head
                {
                    OFFSET	 0.00	 0.927524780924562	 0.00
                    CHANNELS 3 Zrotation Xrotation Yrotation
                    End Site 
                    {
                        OFFSET	 0.00	 1.14999962169752	 0.00
                    }
                }
            }
			JOINT LeftShoulder
			{
				OFFSET	 0.00	 2.48462964506057	 0.00
				CHANNELS 3 Zrotation Xrotation Yrotation
				JOINT LeftUpArm
				{
					OFFSET	 0.00	 1.24881979654096	 0.00
					CHANNELS 3 Zrotation Xrotation Yrotation
					JOINT LeftForeArm
					{
						OFFSET	 0.00	2.59758046908119	 0.00
						CHANNELS 3 Zrotation Xrotation Yrotation
						JOINT LeftHand
						{
							OFFSET	 0.00	2.45542024364365	 0.00
							CHANNELS 3 Zrotation Xrotation Yrotation
							JOINT LeftHandThumb 
							{
								OFFSET	 0.00	0.00	 0.00
								CHANNELS 3 Zrotation Xrotation Yrotation
								End Site
								{
									OFFSET	 0.00	0.00	1.00000003353624
								}
							}
							JOINT L_Wrist_End 
							{
								OFFSET	 0.00	0.99999967115358	 0.00
								CHANNELS 3 Zrotation Xrotation Yrotation
								End Site 
								{
									OFFSET	 0.00	 0.00	 0.00
								}
							}
						}
					}
				}
			}
			JOINT RightShoulder
			{
				OFFSET	 0.00	 2.48462964506057	 0.00
				CHANNELS 3 Zrotation Xrotation Yrotation
				JOINT RightUpArm
				{
					OFFSET	 0.00	 1.24881979654096	 0.00
					CHANNELS 3 Zrotation Xrotation Yrotation
					JOINT RightForeArm
					{
						OFFSET	 0.00	2.59758046908119	 0.00
						CHANNELS 3 Zrotation Xrotation Yrotation
						JOINT RightHand
						{
							OFFSET	 0.00	2.45542024364365	 0.00
							CHANNELS 3 Zrotation Xrotation Yrotation
							JOINT RightHandThumb 
							{
								OFFSET	 0.00	0.00	 0.00
								CHANNELS 3 Zrotation Xrotation Yrotation
								End Site
								{
									OFFSET	 0.00	0.00	1.00000003353624
								}
							}
							JOINT R_Wrist_End 
							{
								OFFSET	 0.00	0.99999967115358	 0.00
								CHANNELS 3 Zrotation Xrotation Yrotation
								End Site 
								{
									OFFSET	 0.00	 0.00	 0.00
								}
							}
						}
					}
				}
			}
		}
	}
	JOINT LeftUpLeg
	{
		OFFSET	 1.2719394002717	 0.00	 0.00
		CHANNELS 3 Zrotation Xrotation Yrotation
		JOINT LeftLowLeg
		{
			OFFSET	 0.00	-4.3429100912261	 0.00
			CHANNELS 3 Zrotation Xrotation Yrotation
			JOINT LeftFoot
			{
				OFFSET	 0.00	-4.48767017425826	 0.00
				CHANNELS 3 Zrotation Xrotation Yrotation
				JOINT LeftToeBase
                {
                    OFFSET	 0.00	0.00	 1.51507020887566
                    CHANNELS 3 Zrotation Xrotation Yrotation
                    End Site 
                    {
                        OFFSET	 0.00	0.00	 0.75000010571191
                    }
                }
			}
		}
	}
	JOINT RightUpLeg
	{
		OFFSET	 -1.2719393604653	 0.00	 0.00
		CHANNELS 3 Zrotation Xrotation Yrotation
		JOINT RightLowLeg
		{
			OFFSET	 0.00	-4.3429100912261	 0.00
			CHANNELS 3 Zrotation Xrotation Yrotation
			JOINT RightFoot
			{
				OFFSET	 0.00	-4.48767017425826	 0.00
				CHANNELS 3 Zrotation Xrotation Yrotation
				JOINT RightToeBase
                {
                    OFFSET	 0.00	0.00	 1.51507020887566
                    CHANNELS 3 Zrotation Xrotation Yrotation
                    End Site 
                    {
                        OFFSET	 0.00	0.00	 0.749999965609858
                    }
                }   
			}
		}
	}
}
MOTION 
Frames:	11 
Frame Time: 0.02 
 4.137170104980469 6.392860107421875 9.861510009765626 -158.89 80.9685 161.449 2.14511 -10.5952 -1.65443 0.50081 6.17511 -2.11085 -0.494235 38.704 4.27733 12.8218 -49.7026 10.3835 -92.17513 -13.6797 -1.57815 -14.2545 1.52125 -33.8572 0.0 21.2565 0.0 29.4861 -10.2907 24.4933 0.0 0.0 0.0 0.0 0.0 0.0 99.19996 -9.43961 -0.62128 11.3212 0.339738 37.9562 0.0 19.8402 0.0 -16.9966 -2.46596 -23.8751 0.0 0.0 0.0 0.0 0.0 0.0 4.56422 -7.71374 -0.171759 0.0 7.58283 0.0 9.19779 7.49474 0.911956 0.0 -35.4971 0.0 1.42806 -5.43937 4.22786 0.0 6.02615 0.0 9.50875 10.26237 -6.64073 0.0 -26.8543 0.0 
  4.137309875488281 6.391400146484375 9.861389770507813 -158.885 80.9855 161.452 2.15073 -10.5879 -1.64739 0.474889 6.16481 -2.10554 -0.45657 38.7376 4.24026 12.8257 -49.6828 10.418 -92.12163 -13.6969 -1.57609 -14.2818 1.46146 -33.4858 0.0 21.3628 0.0 29.3732 -10.4202 24.3272 0.0 0.0 0.0 0.0 0.0 0.0 99.2363 -9.45255 -0.610781 11.2905 0.356054 37.9306 0.0 19.832 0.0 -17.0389 -2.49029 -23.8815 0.0 0.0 0.0 0.0 0.0 0.0 4.55617 -7.68261 -0.214012 0.0 7.57138 0.0 9.20389 7.50116 0.944448 0.0 -35.4853 0.0 1.42032 -5.3958 4.21549 0.0 5.99441 0.0 9.51796 10.259439 -6.63096 0.0 -26.8434 0.0 
  4.137179870605468 6.39010986328125 9.861240234375 -158.908 80.9796 161.478 2.14835 -10.6164 -1.65659 0.470827 6.19583 -2.11449 -0.490007 38.7209 4.29179 12.8357 -49.6577 10.3989 -92.11421 -13.7159 -1.57819 -14.2848 1.4572 -33.4377 0.0 21.3481 0.0 29.3496 -10.415 24.302 0.0 0.0 0.0 0.0 0.0 0.0 99.24024 -9.43194 -0.60878 11.2838 0.365575 37.876 0.0 19.8254 0.0 -17.0579 -2.52406 -23.8006 0.0 0.0 0.0 0.0 0.0 0.0 4.55526 -7.67531 -0.223914 0.0 7.55659 0.0 9.1782 7.49505 0.946486 0.0 -35.4828 0.0 1.41981 -5.38498 4.19851 0.0 5.9765 0.0 9.50252 10.25266 -6.63137 0.0 -26.8332 0.0 
  4.137019958496094 6.38916015625 9.861079711914062 -158.905 80.9783 161.472 2.14945 -10.6212 -1.65498 0.466942 6.19606 -2.1132 -0.485784 38.7258 4.2853 12.8245 -49.647 10.3981 -92.10944 -13.7271 -1.57854 -14.2837 1.46123 -33.4187 0.0 21.3343 0.0 29.3284 -10.4178 24.3195 0.0 0.0 0.0 0.0 0.0 0.0 99.23702 -9.44203 -0.624249 11.2917 0.413265 37.9335 0.0 19.7937 0.0 -17.0504 -2.48215 -23.8561 0.0 0.0 0.0 0.0 0.0 0.0 4.55798 -7.66395 -0.222505 0.0 7.54839 0.0 9.19701 7.49085 0.952994 0.0 -35.4898 0.0 1.42253 -5.37753 4.1892 0.0 5.97241 0.0 9.50061 10.24561 -6.61767 0.0 -26.8372 0.0 
  4.136900024414063 6.387559814453125 9.860989990234375 -158.919 80.9741 161.482 2.14623 -10.6536 -1.64425 0.467107 6.23513 -2.10149 -0.489853 38.7195 4.28739 12.8214 -49.6451 10.3879 -92.11227 -13.7327 -1.56937 -14.2735 1.50599 -33.4385 0.0 21.2947 0.0 29.3619 -10.4248 24.3261 0.0 0.0 0.0 0.0 0.0 0.0 99.22845 -9.44447 -0.625931 11.3203 0.410633 37.9534 0.0 19.8124 0.0 -17.0545 -2.52834 -23.7798 0.0 0.0 0.0 0.0 0.0 0.0 4.5603 -7.65755 -0.194457 0.0 7.54561 0.0 9.20492 7.48322 0.936983 0.0 -35.4953 0.0 1.42326 -5.36914 4.21592 0.0 5.96184 0.0 9.49946 10.24935 -6.63808 0.0 -26.8473 0.0 
  4.136860046386719 6.385819702148438 9.8610498046875 -158.915 80.9699 161.46 2.15386 -10.6752 -1.62621 0.461322 6.24565 -2.08531 -0.484892 38.7383 4.26991 12.8114 -49.6544 10.375 -92.12809 -13.7348 -1.5752 -14.2654 1.52793 -33.4501 0.0 21.2989 0.0 29.4448 -10.4084 24.3467 0.0 0.0 0.0 0.0 0.0 0.0 99.23952 -9.45572 -0.636696 11.3289 0.432534 38.0137 0.0 19.8358 0.0 -17.1233 -2.60244 -23.7197 0.0 0.0 0.0 0.0 0.0 0.0 4.56407 -7.645 -0.188788 0.0 7.54076 0.0 9.17974 7.47417 0.942689 0.0 -35.487198 0.0 1.42721 -5.36021 4.23901 0.0 5.9562 0.0 9.51983 10.24584 -6.63585 0.0 -26.8284 0.0 
  4.136889953613281 6.384559936523438 9.861090087890625 -158.93 80.9643 161.471 2.14839 -10.6963 -1.62048 0.472819 6.25462 -2.07773 -0.508932 38.7519 4.29608 12.8009 -49.653 10.357 -92.15291 -13.7367 -1.58531 -14.2751 1.52445 -33.4587 0.0 21.3664 0.0 29.4652 -10.3979 24.2984 0.0 0.0 0.0 0.0 0.0 0.0 99.25038 -9.47306 -0.624011 11.3095 0.467355 37.9567 0.0 19.8257 0.0 -17.1626 -2.61734 -23.7314 0.0 0.0 0.0 0.0 0.0 0.0 4.56536 -7.64637 -0.180514 0.0 7.55232 0.0 9.19181 7.46811 0.937993 0.0 -35.501198 0.0 1.42802 -5.35776 4.20642 0.0 5.95227 0.0 9.48211 10.25222 -6.61873 0.0 -26.8405 0.0 
  4.136919860839844 6.3836602783203125 9.86114990234375 -158.93 80.9689 161.473 2.02893 -10.7669 -1.72806 0.700145 6.39461 -2.15147 -0.763353 38.6714 4.59081 12.6772 -49.6392 10.2083 -92.30926 -13.8732 -1.69205 -14.2715 1.5102 -33.4348 0.0 21.3919 0.0 29.4126 -10.3696 24.2179 0.0 0.0 0.0 0.0 0.0 0.0 99.15603 -9.30348 -0.568146 11.2802 0.462606 37.8863 0.0 19.829 0.0 -17.0839 -2.6508 -23.7463 0.0 0.0 0.0 0.0 0.0 0.0 4.56134 -7.63575 -0.20981 0.0 7.55166 0.0 9.20328 7.47086 0.967798 0.0 -35.4908 0.0 1.42516 -5.33837 4.20005 0.0 5.93398 0.0 9.47951 10.25506 -6.61472 0.0 -26.8317 0.0 
  4.136929931640625 6.383079833984375 9.860969848632813 -158.906 80.9823 161.45 2.0341 -10.7554 -1.72792 0.689001 6.39022 -2.15296 -0.793259 38.6677 4.63751 12.6761 -49.6169 10.2003 -92.32837 -13.8672 -1.69029 -14.2512 1.50932 -33.4376 0.0 21.3752 0.0 29.3416 -10.3704 24.1174 0.0 0.0 0.0 0.0 0.0 0.0 99.16306 -9.29316 -0.598679 11.2901 0.485567 37.9313 0.0 19.8145 0.0 -17.0808 -2.63287 -23.7557 0.0 0.0 0.0 0.0 0.0 0.0 4.55938 -7.62691 -0.210008 0.0 7.56652 0.0 9.18705 7.45543 0.969789 0.0 -35.4981 0.0 1.42552 -5.3318 4.20381 0.0 5.95765 0.0 9.48123 10.23596 -6.61337 0.0 -26.838001 0.0 
  4.136929931640625 6.383079833984375 9.860969848632813 -158.906 80.9823 161.45 2.0341 -10.7554 -1.72792 0.689001 6.39022 -2.15296 -0.793259 38.6677 4.63751 12.6761 -49.6169 10.2003 -92.32837 -13.8672 -1.69029 -14.2512 1.50932 -33.4376 0.0 21.3752 0.0 29.3416 -10.3704 24.1174 0.0 0.0 0.0 0.0 0.0 0.0 99.16306 -9.29316 -0.598679 11.2901 0.485567 37.9313 0.0 19.8145 0.0 -17.0808 -2.63287 -23.7557 0.0 0.0 0.0 0.0 0.0 0.0 4.55938 -7.62691 -0.210008 0.0 7.56652 0.0 9.18705 7.45543 0.969789 0.0 -35.4981 0.0 1.42552 -5.3318 4.20381 0.0 5.95765 0.0 9.48123 10.23596 -6.61337 0.0 -26.838001 0.0 
  4.136820068359375 6.382620239257813 9.860689697265625 -158.82 81.0192 161.37 2.01423 -10.719 -1.73991 0.725962 6.40798 -2.15923 -0.840504 38.6201 4.69352 12.6542 -49.6037 10.1647 -92.34745 -13.8707 -1.68636 -14.26 1.53159 -33.4436 0.0 21.3128 0.0 29.3211 -10.3845 24.1563 0.0 0.0 0.0 0.0 0.0 0.0 99.14692 -9.2799 -0.576748 11.3188 0.487328 37.9701 0.0 19.8125 0.0 -17.0251 -2.54279 -23.7427 0.0 0.0 0.0 0.0 0.0 0.0 4.55668 -7.6112 -0.25184 0.0 7.62086 0.0 9.1781 7.42773 1.00905 0.0 -35.4819 0.0 1.42854 -5.305 4.20858 0.0 5.98921 0.0 9.48479 10.21217 -6.62335 0.0 -26.8261 0.0 
